<svg xmlns="http://www.w3.org/2000/svg" width="358" height="359" viewBox="0 0 358 359"><g transform="translate(-1270 -1229)"><path d="M179,0c98.859,0,179,80.365,179,179.5S277.859,359,179,359,0,278.635,0,179.5,80.141,0,179,0Z" transform="translate(1270 1229)" fill="red"/><g transform="translate(1097.288 1272.814)" style="isolation:isolate"><path d="M233.3,147.3c-2.3,0-3.833-1.883-3.833-4.945,0-3.018,1.529-4.877,3.8-4.877a3.346,3.346,0,0,1,2.482,1.09l1.1-1.227a4.965,4.965,0,0,0-3.586-1.576c-3.355,0-5.825,2.5-5.825,6.643,0,4.207,2.5,6.606,5.663,6.606a5.024,5.024,0,0,0,4.016-1.858l-1.105-1.187A3.531,3.531,0,0,1,233.3,147.3Z" transform="translate(0.515 43.178)" fill="#e5e5e5"/><path d="M247.145,137.606a5.008,5.008,0,1,0,4.75,5.018A4.7,4.7,0,0,0,247.145,137.606Zm0,8.406c-1.689,0-2.759-1.35-2.759-3.389,0-2.054,1.07-3.42,2.759-3.42s2.759,1.366,2.759,3.42C249.9,144.662,248.832,146.012,247.145,146.012Z" transform="translate(11.921 44.582)" fill="#e5e5e5"/><path d="M264.544,147.773a1.641,1.641,0,0,1-1.8-1.856V135.3h-5.22v1.551H260.8V145.8c0,2.3,1.153,3.572,3.288,3.572a6.267,6.267,0,0,0,2.629-.555l-.469-1.442A4.236,4.236,0,0,1,264.544,147.773Z" transform="translate(23.468 42.822)" fill="#e5e5e5"/><path d="M279.556,147.773a1.641,1.641,0,0,1-1.8-1.856V135.3h-5.22v1.551h3.276V145.8c0,2.3,1.153,3.572,3.288,3.572a6.267,6.267,0,0,0,2.629-.555l-.467-1.442A4.249,4.249,0,0,1,279.556,147.773Z" transform="translate(34.921 42.822)" fill="#e5e5e5"/><path d="M292.4,137.606a5,5,0,1,0,.287,10,6.731,6.731,0,0,0,3.713-1.132l-.681-1.229a5.175,5.175,0,0,1-2.786.839,3.174,3.174,0,0,1-3.484-2.925h7.251a7.092,7.092,0,0,0,.09-1.058A4.136,4.136,0,0,0,292.4,137.606Zm.053,1.506c1.486,0,2.44.883,2.586,2.627H289.5A2.947,2.947,0,0,1,292.458,139.112Z" transform="translate(46.349 44.582)" fill="#e5e5e5"/><path d="M308.057,146.012a3.223,3.223,0,0,1-3.41-3.389,3.265,3.265,0,0,1,3.463-3.42,3.814,3.814,0,0,1,2.479,1l.934-1.229a4.921,4.921,0,0,0-3.5-1.366c-2.9,0-5.368,1.825-5.368,5.018,0,3.161,2.253,4.986,5.243,4.986a5.81,5.81,0,0,0,3.82-1.469l-.836-1.25A4.48,4.48,0,0,1,308.057,146.012Z" transform="translate(57.903 44.582)" fill="#e5e5e5"/><path d="M324.395,147.249c-1.724,0-2.3-.8-2.3-2.433V140.6h4.5v-1.553h-4.5v-3.022h-1.613l-.256,3.022-2.7.1V140.6h2.629v4.212c0,2.392.948,4.006,3.8,4.006a8.8,8.8,0,0,0,3.018-.555l-.395-1.419A6.081,6.081,0,0,1,324.395,147.249Z" transform="translate(69.242 43.375)" fill="#e5e5e5"/><path d="M336.3,135.11a1.364,1.364,0,0,0-1.449,1.388,1.45,1.45,0,0,0,2.9,0A1.364,1.364,0,0,0,336.3,135.11Z" transform="translate(82.469 42.678)" fill="#e5e5e5"/><path d="M332.792,139.291h4.264v7.984H339v-9.536h-6.208Z" transform="translate(80.897 44.684)" fill="#e5e5e5"/><path d="M353.4,142.9c-.372.959-.67,1.911-.991,2.854h-.078c-.321-.943-.651-1.9-1.007-2.854l-2.013-5.16h-1.976l3.911,9.536h2.2l3.84-9.536h-1.867Z" transform="translate(91.997 44.684)" fill="#e5e5e5"/><path d="M367.456,137.606a5,5,0,1,0,.287,10,6.735,6.735,0,0,0,3.713-1.132l-.681-1.229a5.174,5.174,0,0,1-2.786.839,3.173,3.173,0,0,1-3.484-2.925h7.251a7.112,7.112,0,0,0,.088-1.058A4.135,4.135,0,0,0,367.456,137.606Zm.053,1.506c1.484,0,2.438.883,2.586,2.627h-5.547A2.948,2.948,0,0,1,367.509,139.112Z" transform="translate(103.615 44.582)" fill="#e5e5e5"/><path d="M299.848,79.21a1.271,1.271,0,0,0-1.428.7l-34.638,73.48L229.193,79.91a1.271,1.271,0,0,0-2.421.541v75.922a1.272,1.272,0,0,0,1.271,1.271h71.528a1.272,1.272,0,0,0,1.271-1.271V80.452A1.271,1.271,0,0,0,299.848,79.21ZM229.314,155.1V86.137L261.777,155.1Zm68.984,0H265.786L298.3,86.13Z" fill="#e5e5e5"/><path d="M344.447,157.645a1.272,1.272,0,0,0,1.192-1.712l-28.08-75.922a1.272,1.272,0,0,0-1.194-.832h0a1.275,1.275,0,0,0-1.192.834L287.3,155.936a1.271,1.271,0,0,0,1.194,1.708ZM316.371,84.13,342.62,155.1h-52.3Z" transform="translate(46.127)" fill="#e5e5e5"/><path d="M391.658,79.179H337.764a1.272,1.272,0,0,0-1.271,1.273V131.58c0,7.394,2.28,13.406,6.777,17.867,8.083,8.02,20.414,8.2,21.46,8.2.051,0,.063,0,.111,0,1.058,0,13.267-.178,21.3-8.151,4.5-4.466,6.784-10.494,6.784-17.914V80.452A1.272,1.272,0,0,0,391.658,79.179Zm-1.273,52.4c0,6.712-2.024,12.126-6.019,16.1-7.459,7.414-19.413,7.444-19.582,7.426-.1-.011-12.191.011-19.723-7.461-4-3.967-6.026-9.371-6.026-16.061V81.723h51.35Z" transform="translate(83.722)" fill="#e5e5e5"/><path d="M279.483,120.1a2.927,2.927,0,0,0-2.879,2.969,2.881,2.881,0,0,0,2.879,2.879,2.924,2.924,0,1,0,0-5.848Z" transform="translate(38.023 31.223)" fill="#e5e5e5"/><path d="M330.814,120.1a2.929,2.929,0,0,0-2.881,2.969,2.883,2.883,0,0,0,2.881,2.879,2.924,2.924,0,1,0,0-5.848Z" transform="translate(77.19 31.223)" fill="#e5e5e5"/></g></g></svg>